# xmcd CD database file
#
# Track frame offsets:
#	150
#	13380
#	28960
#	40587
#	53915
#	68487
#	79175
#	89187
#	101517
#	113222
#	124412
#
# Disc length: 1831 seconds
#
# Revision: 2
# Processed by: cddbd v1.4PL0 Copyright (c) Steve Scherf et al.
# Submitted via: CDex 1.50
#
DISCID=9707250b
DTITLE=Merle Haggard - The Best of the Best of Merle Haggard
DYEAR=1972
DGENRE=Country
TTITLE0=Okie From Muskogee
TTITLE1=Hungry Eyes
TTITLE2=Workin' Man Blues
TTITLE3=The Farmer's Daughter
TTITLE4=Daddy Frank (The Guitar Man)
TTITLE5=Today I Started Loving You Again
TTITLE6=Mama Tried "The Ballad From Killers Three"
TTITLE7=Silver Wings
TTITLE8=No Reason to Quit
TTITLE9=Every Fool Has A Rainbow
TTITLE10=The Fightin' Side of Me
EXTD=YEAR: 1972
EXTT0=
EXTT1=
EXTT2=
EXTT3=
EXTT4=
EXTT5=
EXTT6=
EXTT7=
EXTT8=
EXTT9=
EXTT10=
PLAYORDER=
